<svg xmlns="http://www.w3.org/2000/svg" class="d-none">
    <!--  ColorMode  -->
    <symbol id="check2" viewBox="0 0 16 16">
        <path d="M13.854 3.646a.5.5 0 0 1 0 .708l-7 7a.5.5 0 0 1-.708 0l-3.5-3.5a.5.5 0 1 1 .708-.708L6.5 10.293l6.646-6.647a.5.5 0 0 1 .708 0z"/>
    </symbol>
    <symbol id="circle-half" viewBox="0 0 16 16">
        <path d="M8 15A7 7 0 1 0 8 1v14zm0 1A8 8 0 1 1 8 0a8 8 0 0 1 0 16z"/>
    </symbol>
    <symbol id="moon-stars-fill" viewBox="0 0 16 16">
        <path d="M6 .278a.768.768 0 0 1 .08.858 7.208 7.208 0 0 0-.878 3.46c0 4.021 3.278 7.277 7.318 7.277.527 0 1.04-.055 1.533-.16a.787.787 0 0 1 .81.316.733.733 0 0 1-.031.893A8.349 8.349 0 0 1 8.344 16C3.734 16 0 12.286 0 7.71 0 4.266 2.114 1.312 5.124.06A.752.752 0 0 1 6 .278z"/>
        <path d="M10.794 3.148a.217.217 0 0 1 .412 0l.387 1.162c.173.518.579.924 1.097 1.097l1.162.387a.217.217 0 0 1 0 .412l-1.162.387a1.734 1.734 0 0 0-1.097 1.097l-.387 1.162a.217.217 0 0 1-.412 0l-.387-1.162A1.734 1.734 0 0 0 9.31 6.593l-1.162-.387a.217.217 0 0 1 0-.412l1.162-.387a1.734 1.734 0 0 0 1.097-1.097l.387-1.162zM13.863.099a.145.145 0 0 1 .274 0l.258.774c.115.346.386.617.732.732l.774.258a.145.145 0 0 1 0 .274l-.774.258a1.156 1.156 0 0 0-.732.732l-.258.774a.145.145 0 0 1-.274 0l-.258-.774a1.156 1.156 0 0 0-.732-.732l-.774-.258a.145.145 0 0 1 0-.274l.774-.258c.346-.115.617-.386.732-.732L13.863.1z"/>
    </symbol>
    <symbol id="sun-fill" viewBox="0 0 16 16">
        <path d="M8 12a4 4 0 1 0 0-8 4 4 0 0 0 0 8zM8 0a.5.5 0 0 1 .5.5v2a.5.5 0 0 1-1 0v-2A.5.5 0 0 1 8 0zm0 13a.5.5 0 0 1 .5.5v2a.5.5 0 0 1-1 0v-2A.5.5 0 0 1 8 13zm8-5a.5.5 0 0 1-.5.5h-2a.5.5 0 0 1 0-1h2a.5.5 0 0 1 .5.5zM3 8a.5.5 0 0 1-.5.5h-2a.5.5 0 0 1 0-1h2A.5.5 0 0 1 3 8zm10.657-5.657a.5.5 0 0 1 0 .707l-1.414 1.415a.5.5 0 1 1-.707-.708l1.414-1.414a.5.5 0 0 1 .707 0zm-9.193 9.193a.5.5 0 0 1 0 .707L3.05 13.657a.5.5 0 0 1-.707-.707l1.414-1.414a.5.5 0 0 1 .707 0zm9.193 2.121a.5.5 0 0 1-.707 0l-1.414-1.414a.5.5 0 0 1 .707-.707l1.414 1.414a.5.5 0 0 1 0 .707zM4.464 4.465a.5.5 0 0 1-.707 0L2.343 3.05a.5.5 0 1 1 .707-.707l1.414 1.414a.5.5 0 0 1 0 .708z"/>
    </symbol>

    <!--  Aside  -->
    <symbol id="home" viewBox="0 0 16 16">
        <path d="M8.354 1.146a.5.5 0 0 0-.708 0l-6 6A.5.5 0 0 0 1.5 7.5v7a.5.5 0 0 0 .5.5h4.5a.5.5 0 0 0 .5-.5v-4h2v4a.5.5 0 0 0 .5.5H14a.5.5 0 0 0 .5-.5v-7a.5.5 0 0 0-.146-.354L13 5.793V2.5a.5.5 0 0 0-.5-.5h-1a.5.5 0 0 0-.5.5v1.293L8.354 1.146zM2.5 14V7.707l5.5-5.5 5.5 5.5V14H10v-4a.5.5 0 0 0-.5-.5h-3a.5.5 0 0 0-.5.5v4H2.5z"/>
    </symbol>
    <symbol id="speedometer2" viewBox="0 0 16 16">
        <path d="M8 4a.5.5 0 0 1 .5.5V6a.5.5 0 0 1-1 0V4.5A.5.5 0 0 1 8 4zM3.732 5.732a.5.5 0 0 1 .707 0l.915.914a.5.5 0 1 1-.708.708l-.914-.915a.5.5 0 0 1 0-.707zM2 10a.5.5 0 0 1 .5-.5h1.586a.5.5 0 0 1 0 1H2.5A.5.5 0 0 1 2 10zm9.5 0a.5.5 0 0 1 .5-.5h1.5a.5.5 0 0 1 0 1H12a.5.5 0 0 1-.5-.5zm.754-4.246a.389.389 0 0 0-.527-.02L7.547 9.31a.91.91 0 1 0 1.302 1.258l3.434-4.297a.389.389 0 0 0-.029-.518z"/>
        <path fill-rule="evenodd"
              d="M0 10a8 8 0 1 1 15.547 2.661c-.442 1.253-1.845 1.602-2.932 1.25C11.309 13.488 9.475 13 8 13c-1.474 0-3.31.488-4.615.911-1.087.352-2.49.003-2.932-1.25A7.988 7.988 0 0 1 0 10zm8-7a7 7 0 0 0-6.603 9.329c.203.575.923.876 1.68.63C4.397 12.533 6.358 12 8 12s3.604.532 4.923.96c.757.245 1.477-.056 1.68-.631A7 7 0 0 0 8 3z"/>
    </symbol>
    <symbol id="books" viewBox="0 0 16 16">
        <path d="M1 2.828c.885-.37 2.154-.769 3.388-.893 1.33-.134 2.458.063 3.112.752v9.746c-.935-.53-2.12-.603-3.213-.493-1.18.12-2.37.461-3.287.811V2.828zm7.5-.141c.654-.689 1.782-.886 3.112-.752 1.234.124 2.503.523 3.388.893v9.923c-.918-.35-2.107-.692-3.287-.81-1.094-.111-2.278-.039-3.213.492V2.687zM8 1.783C7.015.936 5.587.81 4.287.94c-1.514.153-3.042.672-3.994 1.105A.5.5 0 0 0 0 2.5v11a.5.5 0 0 0 .707.455c.882-.4 2.303-.881 3.68-1.02 1.409-.142 2.59.087 3.223.877a.5.5 0 0 0 .78 0c.633-.79 1.814-1.019 3.222-.877 1.378.139 2.8.62 3.681 1.02A.5.5 0 0 0 16 13.5v-11a.5.5 0 0 0-.293-.455c-.952-.433-2.48-.952-3.994-1.105C10.413.809 8.985.936 8 1.783z"/>
    </symbol>
    <symbol id="people-circle" viewBox="0 0 16 16">
        <path d="M11 6a3 3 0 1 1-6 0 3 3 0 0 1 6 0z"/>
        <path fill-rule="evenodd"
              d="M0 8a8 8 0 1 1 16 0A8 8 0 0 1 0 8zm8-7a7 7 0 0 0-5.468 11.37C3.242 11.226 4.805 10 8 10s4.757 1.225 5.468 2.37A7 7 0 0 0 8 1z"/>
    </symbol>
    <symbol id="grid" viewBox="0 0 16 16">
        <path d="M1 2.5A1.5 1.5 0 0 1 2.5 1h3A1.5 1.5 0 0 1 7 2.5v3A1.5 1.5 0 0 1 5.5 7h-3A1.5 1.5 0 0 1 1 5.5v-3zM2.5 2a.5.5 0 0 0-.5.5v3a.5.5 0 0 0 .5.5h3a.5.5 0 0 0 .5-.5v-3a.5.5 0 0 0-.5-.5h-3zm6.5.5A1.5 1.5 0 0 1 10.5 1h3A1.5 1.5 0 0 1 15 2.5v3A1.5 1.5 0 0 1 13.5 7h-3A1.5 1.5 0 0 1 9 5.5v-3zm1.5-.5a.5.5 0 0 0-.5.5v3a.5.5 0 0 0 .5.5h3a.5.5 0 0 0 .5-.5v-3a.5.5 0 0 0-.5-.5h-3zM1 10.5A1.5 1.5 0 0 1 2.5 9h3A1.5 1.5 0 0 1 7 10.5v3A1.5 1.5 0 0 1 5.5 15h-3A1.5 1.5 0 0 1 1 13.5v-3zm1.5-.5a.5.5 0 0 0-.5.5v3a.5.5 0 0 0 .5.5h3a.5.5 0 0 0 .5-.5v-3a.5.5 0 0 0-.5-.5h-3zm6.5.5A1.5 1.5 0 0 1 10.5 9h3a1.5 1.5 0 0 1 1.5 1.5v3a1.5 1.5 0 0 1-1.5 1.5h-3A1.5 1.5 0 0 1 9 13.5v-3zm1.5-.5a.5.5 0 0 0-.5.5v3a.5.5 0 0 0 .5.5h3a.5.5 0 0 0 .5-.5v-3a.5.5 0 0 0-.5-.5h-3z"/>
    </symbol>
    <symbol id="feed" viewBox="0 0 16 16">
        <path d="M5 0h8a2 2 0 0 1 2 2v10a2 2 0 0 1-2 2 2 2 0 0 1-2 2H3a2 2 0 0 1-2-2h1a1 1 0 0 0 1 1h8a1 1 0 0 0 1-1V4a1 1 0 0 0-1-1H3a1 1 0 0 0-1 1H1a2 2 0 0 1 2-2h8a2 2 0 0 1 2 2v9a1 1 0 0 0 1-1V2a1 1 0 0 0-1-1H5a1 1 0 0 0-1 1H3a2 2 0 0 1 2-2"/>
        <path d="M1 6v-.5a.5.5 0 0 1 1 0V6h.5a.5.5 0 0 1 0 1h-2a.5.5 0 0 1 0-1zm0 3v-.5a.5.5 0 0 1 1 0V9h.5a.5.5 0 0 1 0 1h-2a.5.5 0 0 1 0-1zm0 2.5v.5H.5a.5.5 0 0 0 0 1h2a.5.5 0 0 0 0-1H2v-.5a.5.5 0 0 0-1 0"/>
    </symbol>
    <symbol id="favorites" viewBox="0 0 16 16">
        <path fill-rule="evenodd" d="M6 1h6v7a.5.5 0 0 1-.757.429L9 7.083 6.757 8.43A.5.5 0 0 1 6 8z"/>
        <path d="M3 0h10a2 2 0 0 1 2 2v12a2 2 0 0 1-2 2H3a2 2 0 0 1-2-2v-1h1v1a1 1 0 0 0 1 1h10a1 1 0 0 0 1-1V2a1 1 0 0 0-1-1H3a1 1 0 0 0-1 1v1H1V2a2 2 0 0 1 2-2"/>
        <path d="M1 5v-.5a.5.5 0 0 1 1 0V5h.5a.5.5 0 0 1 0 1h-2a.5.5 0 0 1 0-1zm0 3v-.5a.5.5 0 0 1 1 0V8h.5a.5.5 0 0 1 0 1h-2a.5.5 0 0 1 0-1zm0 3v-.5a.5.5 0 0 1 1 0v.5h.5a.5.5 0 0 1 0 1h-2a.5.5 0 0 1 0-1z"/>
    </symbol>
    <symbol id="add-to-favorites" viewBox="0 0 16 16">
        <path d="M2 2a2 2 0 0 1 2-2h8a2 2 0 0 1 2 2v13.5a.5.5 0 0 1-.777.416L8 13.101l-5.223 2.815A.5.5 0 0 1 2 15.5zm2-1a1 1 0 0 0-1 1v12.566l4.723-2.482a.5.5 0 0 1 .554 0L13 14.566V2a1 1 0 0 0-1-1z"/>
        <path d="M8 4a.5.5 0 0 1 .5.5V6H10a.5.5 0 0 1 0 1H8.5v1.5a.5.5 0 0 1-1 0V7H6a.5.5 0 0 1 0-1h1.5V4.5A.5.5 0 0 1 8 4"/>
    </symbol>
    <symbol id="remove-favorite" viewBox="0 0 16 16">
        <path fill-rule="evenodd"
              d="M2 15.5V2a2 2 0 0 1 2-2h8a2 2 0 0 1 2 2v13.5a.5.5 0 0 1-.74.439L8 13.069l-5.26 2.87A.5.5 0 0 1 2 15.5M6 6a.5.5 0 0 0 0 1h4a.5.5 0 0 0 0-1z"/>
    </symbol>
    <symbol id="api" viewBox="0 0 16 16">
        <path d="M9.405 1.05c-.413-1.4-2.397-1.4-2.81 0l-.1.34a1.464 1.464 0 0 1-2.105.872l-.31-.17c-1.283-.698-2.686.705-1.987 1.987l.169.311c.446.82.023 1.841-.872 2.105l-.34.1c-1.4.413-1.4 2.397 0 2.81l.34.1a1.464 1.464 0 0 1 .872 2.105l-.17.31c-.698 1.283.705 2.686 1.987 1.987l.311-.169a1.464 1.464 0 0 1 2.105.872l.1.34c.413 1.4 2.397 1.4 2.81 0l.1-.34a1.464 1.464 0 0 1 2.105-.872l.31.17c1.283.698 2.686-.705 1.987-1.987l-.169-.311a1.464 1.464 0 0 1 .872-2.105l.34-.1c1.4-.413 1.4-2.397 0-2.81l-.34-.1a1.464 1.464 0 0 1-.872-2.105l.17-.31c.698-1.283-.705-2.686-1.987-1.987l-.311.169a1.464 1.464 0 0 1-2.105-.872zM8 10.93a2.929 2.929 0 1 1 0-5.86 2.929 2.929 0 0 1 0 5.858z"/>
    </symbol>

    <!--  Rating  -->
    <symbol id="upvote" viewBox="0 0 16 16">
        <path d="M6.956 1.745C7.021.81 7.908.087 8.864.325l.261.066c.463.116.874.456 1.012.965.22.816.533 2.511.062 4.51a10 10 0 0 1 .443-.051c.713-.065 1.669-.072 2.516.21.518.173.994.681 1.2 1.273.184.532.16 1.162-.234 1.733q.086.18.138.363c.077.27.113.567.113.856s-.036.586-.113.856c-.039.135-.09.273-.16.404.169.387.107.819-.003 1.148a3.2 3.2 0 0 1-.488.901c.054.152.076.312.076.465 0 .305-.089.625-.253.912C13.1 15.522 12.437 16 11.5 16H8c-.605 0-1.07-.081-1.466-.218a4.8 4.8 0 0 1-.97-.484l-.048-.03c-.504-.307-.999-.609-2.068-.722C2.682 14.464 2 13.846 2 13V9c0-.85.685-1.432 1.357-1.615.849-.232 1.574-.787 2.132-1.41.56-.627.914-1.28 1.039-1.639.199-.575.356-1.539.428-2.59z"/>
    </symbol>
    <symbol id="downvote" viewBox="0 0 16 16">
        <path d="M6.956 14.534c.065.936.952 1.659 1.908 1.42l.261-.065a1.38 1.38 0 0 0 1.012-.965c.22-.816.533-2.512.062-4.51q.205.03.443.051c.713.065 1.669.071 2.516-.211.518-.173.994-.68 1.2-1.272a1.9 1.9 0 0 0-.234-1.734c.058-.118.103-.242.138-.362.077-.27.113-.568.113-.856 0-.29-.036-.586-.113-.857a2 2 0 0 0-.16-.403c.169-.387.107-.82-.003-1.149a3.2 3.2 0 0 0-.488-.9c.054-.153.076-.313.076-.465a1.86 1.86 0 0 0-.253-.912C13.1.757 12.437.28 11.5.28H8c-.605 0-1.07.08-1.466.217a4.8 4.8 0 0 0-.97.485l-.048.029c-.504.308-.999.61-2.068.723C2.682 1.815 2 2.434 2 3.279v4c0 .851.685 1.433 1.357 1.616.849.232 1.574.787 2.132 1.41.56.626.914 1.28 1.039 1.638.199.575.356 1.54.428 2.591"/>
    </symbol>

    <!--  Comments  -->
    <symbol id="have-comments" viewBox="0 0 16 16">
        <path d="M0 2a2 2 0 0 1 2-2h12a2 2 0 0 1 2 2v8a2 2 0 0 1-2 2h-2.5a1 1 0 0 0-.8.4l-1.9 2.533a1 1 0 0 1-1.6 0L5.3 12.4a1 1 0 0 0-.8-.4H2a2 2 0 0 1-2-2zm5 4a1 1 0 1 0-2 0 1 1 0 0 0 2 0m4 0a1 1 0 1 0-2 0 1 1 0 0 0 2 0m3 1a1 1 0 1 0 0-2 1 1 0 0 0 0 2"/>
    </symbol>
    <symbol id="no-comments" viewBox="0 0 16 16">
        <path d="M14 1a1 1 0 0 1 1 1v8a1 1 0 0 1-1 1h-2.5a2 2 0 0 0-1.6.8L8 14.333 6.1 11.8a2 2 0 0 0-1.6-.8H2a1 1 0 0 1-1-1V2a1 1 0 0 1 1-1zM2 0a2 2 0 0 0-2 2v8a2 2 0 0 0 2 2h2.5a1 1 0 0 1 .8.4l1.9 2.533a1 1 0 0 0 1.6 0l1.9-2.533a1 1 0 0 1 .8-.4H14a2 2 0 0 0 2-2V2a2 2 0 0 0-2-2z"/>
    </symbol>

    <!--  Footer icons  -->
    <symbol id="github-icon" width="16" height="16" fill="currentColor" class="bi bi-github" viewBox="0 0 16 16">
        <path d="M8 0C3.58 0 0 3.58 0 8c0 3.54 2.29 6.53 5.47 7.59.4.07.55-.17.55-.38 0-.19-.01-.82-.01-1.49-2.01.37-2.53-.49-2.69-.94-.09-.23-.48-.94-.82-1.13-.28-.15-.68-.52-.01-.53.63-.01 1.08.58 1.23.82.72 1.21 1.87.87 2.33.66.07-.52.28-.87.51-1.07-1.78-.2-3.64-.89-3.64-3.95 0-.87.31-1.59.82-2.15-.08-.2-.36-1.02.08-2.12 0 0 .67-.21 2.2.82.64-.18 1.32-.27 2-.27s1.36.09 2 .27c1.53-1.04 2.2-.82 2.2-.82.44 1.1.16 1.92.08 2.12.51.56.82 1.27.82 2.15 0 3.07-1.87 3.75-3.65 3.95.29.25.54.73.54 1.48 0 1.07-.01 1.93-.01 2.2 0 .21.15.46.55.38A8.01 8.01 0 0 0 16 8c0-4.42-3.58-8-8-8"/>
    </symbol>
    <symbol id="telegram-icon" width="16" height="16" fill="currentColor" class="bi bi-telegram" viewBox="0 0 16 16">
        <path d="M16 8A8 8 0 1 1 0 8a8 8 0 0 1 16 0M8.287 5.906q-1.168.486-4.666 2.01-.567.225-.595.442c-.03.243.275.339.69.47l.175.055c.408.133.958.288 1.243.294q.39.01.868-.32 3.269-2.206 3.374-2.23c.05-.012.12-.026.166.016s.042.12.037.141c-.03.129-1.227 1.241-1.846 1.817-.193.18-.33.307-.358.336a8 8 0 0 1-.188.186c-.38.366-.664.64.015 1.088.327.216.589.393.85.571.284.194.568.387.936.629q.14.092.27.187c.331.236.63.448.997.414.214-.02.435-.22.547-.82.265-1.417.786-4.486.906-5.751a1.4 1.4 0 0 0-.013-.315.34.34 0 0 0-.114-.217.53.53 0 0 0-.31-.093c-.3.005-.763.166-2.984 1.09"/>
    </symbol>
</svg>